<svg width="16" height="19" viewBox="0 0 16 19" fill="none" xmlns="http://www.w3.org/2000/svg">
<g clip-path="url(#clip0_352_173)">
<path d="M5.875 4.1875C5.875 2.94648 6.88398 1.9375 8.125 1.9375C9.36602 1.9375 10.375 2.94648 10.375 4.1875V5.875H5.875V4.1875ZM4.1875 5.875H1.9375C1.00586 5.875 0.25 6.63086 0.25 7.5625V14.875C0.25 16.7383 1.76172 18.25 3.625 18.25H12.625C14.4883 18.25 16 16.7383 16 14.875V7.5625C16 6.63086 15.2441 5.875 14.3125 5.875H12.0625V4.1875C12.0625 2.01133 10.3012 0.25 8.125 0.25C5.94883 0.25 4.1875 2.01133 4.1875 4.1875V5.875ZM5.03125 7.5625C5.25503 7.5625 5.46964 7.65139 5.62787 7.80963C5.78611 7.96786 5.875 8.18247 5.875 8.40625C5.875 8.63003 5.78611 8.84464 5.62787 9.00287C5.46964 9.16111 5.25503 9.25 5.03125 9.25C4.80747 9.25 4.59286 9.16111 4.43463 9.00287C4.27639 8.84464 4.1875 8.63003 4.1875 8.40625C4.1875 8.18247 4.27639 7.96786 4.43463 7.80963C4.59286 7.65139 4.80747 7.5625 5.03125 7.5625ZM10.375 8.40625C10.375 8.18247 10.4639 7.96786 10.6221 7.80963C10.7804 7.65139 10.995 7.5625 11.2188 7.5625C11.4425 7.5625 11.6571 7.65139 11.8154 7.80963C11.9736 7.96786 12.0625 8.18247 12.0625 8.40625C12.0625 8.63003 11.9736 8.84464 11.8154 9.00287C11.6571 9.16111 11.4425 9.25 11.2188 9.25C10.995 9.25 10.7804 9.16111 10.6221 9.00287C10.4639 8.84464 10.375 8.63003 10.375 8.40625Z" fill="black"/>
</g>
<defs>
<clipPath id="clip0_352_173">
<path d="M0.25 0.25H16V18.25H0.25V0.25Z" fill="white"/>
</clipPath>
</defs>
</svg>
