<svg width="19" height="18" viewBox="0 0 19 18" fill="none" xmlns="http://www.w3.org/2000/svg">
<path d="M15.3725 6.52504L11.975 3.12754C11.2625 2.41504 10.28 2.03254 9.27498 2.08504L5.52498 2.26504C4.02498 2.33254 2.83248 3.52504 2.75748 5.01754L2.57748 8.76754C2.53248 9.77254 2.90748 10.755 3.61998 11.4675L7.01748 14.865C8.41248 16.26 10.6775 16.26 12.08 14.865L15.3725 11.5725C16.775 10.185 16.775 7.92004 15.3725 6.52504ZM7.62498 9.28504C6.43248 9.28504 5.46498 8.31754 5.46498 7.12504C5.46498 5.93254 6.43248 4.96504 7.62498 4.96504C8.81748 4.96504 9.78498 5.93254 9.78498 7.12504C9.78498 8.31754 8.81748 9.28504 7.62498 9.28504Z" fill="white"/>
</svg>
